<svg id="Capa_1" enable-background="new 0 0 512 512" height="512" viewBox="0 0 512 512" width="512" xmlns="http://www.w3.org/2000/svg"><g><g><g><g><g><g><g><g><circle cx="256" cy="256" fill="#7584f2" r="256"/></g></g></g></g></g></g></g><path d="m511.997 257.085-188.776-188.776-118.486 16.511-39.436 358.418 67.746 67.746c7.562.673 15.218 1.016 22.955 1.016 141.023 0 255.413-114.029 255.997-254.915z" fill="#4855b7"/><g><path d="m346.701 141.216v-12.015c0-50.093-40.608-90.701-90.701-90.701-50.093 0-90.701 40.608-90.701 90.701v314.037h181.403v-271.723h-140.146v-40.412c0-27.307 22.137-49.444 49.444-49.444 27.307 0 49.444 22.137 49.444 49.444v10.113z" fill="#fff"/></g><g fill="#e9edf5"><path d="m256.12 171.515h90.581v271.724h-90.581z"/><path d="m346.701 141.216v-12.015c0-50.053-40.543-90.634-90.581-90.7v43.161c27.252.065 49.324 22.174 49.324 49.441v10.113z"/></g><path d="m256 225.869c-44.81 0-81.265 36.455-81.265 81.265s36.455 81.266 81.265 81.266 81.265-36.455 81.265-81.265-36.455-81.266-81.265-81.266zm0 30c8.686 0 16.875 2.172 24.052 6l-69.316 69.316c-3.829-7.177-6-15.365-6-24.051-.001-28.267 22.996-51.265 51.264-51.265zm0 102.531c-8.686 0-16.875-2.172-24.052-6.001l69.316-69.316c3.829 7.177 6 15.365 6 24.052.001 28.267-22.996 51.265-51.264 51.265z" fill="#ff6c52"/><path d="m256.12 225.872v30c8.641.02 16.786 2.189 23.929 5.999l-23.929 23.929v42.426l45.144-45.144c3.829 7.176 6.001 15.365 6.001 24.051 0 28.227-22.933 51.196-51.145 51.262v30c44.754-.066 81.145-36.493 81.145-81.262s-36.39-81.195-81.145-81.261z" fill="#ff432e"/></g></svg>